<!--?xml version="1.0" encoding="utf-8"?-->
<!-- Generator: Adobe Illustrator 18.1.1, SVG Export Plug-In . SVG Version: 6.00 Build 0)  -->

<svg version="1.1" id="_x32_" xmlns="http://www.w3.org/2000/svg" xmlns:xlink="http://www.w3.org/1999/xlink" x="0px" y="0px" viewBox="0 0 512 512" style="width: 256px; height: 256px; opacity: 1;" xml:space="preserve">
<style type="text/css">
	.st0{fill:#4B4B4B;}
</style>
<g>
	<polygon class="st0" points="186.769,413.08 174.944,387.9 166.961,387.9 166.961,432.31 175.29,432.31 175.29,407.01 
		183.798,424.604 189.756,424.604 198.023,407.108 198.023,432.31 206.352,432.31 206.352,387.9 198.369,387.9 	" style="fill: rgb(75, 75, 75);"></polygon>
	<polygon class="st0" points="219.062,432.31 248.115,432.31 248.115,424.642 227.376,424.642 227.376,413.725 245.068,413.725 
		245.068,406.117 227.376,406.117 227.376,395.56 248.115,395.56 248.115,387.9 219.062,387.9 	" style="fill: rgb(75, 75, 75);"></polygon>
	<polygon class="st0" points="284.249,415.578 266.031,387.9 258.679,387.9 258.679,432.31 267.007,432.31 267.007,404.572 
		285.224,432.31 292.562,432.31 292.562,387.9 284.249,387.9 	" style="fill: rgb(75, 75, 75);"></polygon>
	<path class="st0" d="M328.757,416.734c0,2.634-0.705,4.629-2.146,6.093c-1.441,1.455-3.317,2.168-5.762,2.168
		c-2.431,0-4.292-0.705-5.718-2.161c-1.41-1.441-2.116-3.496-2.116-6.1V387.9h-8.328v29.134c0,2.311,0.42,4.457,1.23,6.378
		c0.825,1.928,1.981,3.579,3.422,4.937c1.426,1.358,3.166,2.423,5.147,3.188c1.966,0.751,4.112,1.134,6.363,1.134
		c2.25,0,4.412-0.383,6.377-1.134c1.982-0.765,3.707-1.823,5.178-3.181c1.455-1.358,2.611-3.016,3.452-4.945
		c0.81-1.921,1.245-4.066,1.245-6.378V387.9h-8.343V416.734z" style="fill: rgb(75, 75, 75);"></path>
	<path class="st0" d="M167.621,238.116c16.762,19.996,25.436,21.556,37.786,21.774c9.949,0.18,17.242-1.08,27.732,11.352l5.807,6.85
		l14.706-17.422l-3.316-3.939c-10.504-12.433-8.028-19.425-6.542-29.262c1.846-12.2,1.77-21.009-15.126-40.892
		c0,0-13.416-15.891-24.385-28.886c-9.154-10.827-23.74,0.833-14.376,11.922l25.825,30.575c2.026,2.416,1.906,5.845-0.255,7.668
		l-1.05,0.885c-2.146,1.823-5.567,1.365-7.593-1.043l-25.96-30.74c-5.237-6.19-10.564-4.87-14.151-1.823
		c-3.616,3.039-5.807,8.066-0.57,14.263l25.946,30.74c2.04,2.408,1.921,5.838-0.241,7.668l-1.05,0.886
		c-2.162,1.823-5.553,1.365-7.594-1.05l-25.81-30.568c-9.379-11.104-23.319,1.336-14.166,12.17
		C154.206,222.233,167.621,238.116,167.621,238.116z" style="fill: rgb(75, 75, 75);"></path>
	<polygon class="st0" points="323.79,343.722 280.437,292.378 265.731,309.808 306.608,358.24 	" style="fill: rgb(75, 75, 75);"></polygon>
	<path class="st0" d="M195.383,343.962l0.285-0.173l17.107,14.451l63.94-75.736c22.81-26.193,23.185,5.222,50.826-29.457
		c11.9-14.091,22.524-40.561,28.451-54.99c9.229-22.449-10.144-32.278-21.834-18.435c-5.687,6.73-32.728,38.761-65.111,77.101
		c-32.728,38.768-70.769,83.809-73.47,86.998C195.473,343.864,195.383,343.962,195.383,343.962z" style="fill: rgb(75, 75, 75);"></path>
	<path class="st0" d="M101.085,73.064c-6.168,0-11.616-2.453-15.667-6.49c-4.037-4.067-6.483-9.514-6.498-15.682
		c0.014-6.175,2.461-11.622,6.498-15.681c4.051-4.03,9.499-6.483,15.667-6.498l346.34,0.007V0.007L101.085,0
		C72.993,0.014,50.214,22.786,50.214,50.893v410.214c0,28.106,22.779,50.878,50.871,50.893h360.701V73.064H101.085z
		 M433.064,483.286H101.085c-12.23-0.022-22.134-9.927-22.164-22.179V96.639c6.707,3.256,14.211,5.147,22.164,5.147h331.979V483.286
		z" style="fill: rgb(75, 75, 75);"></path>
</g>
</svg>
